<svg width="20" height="21" viewBox="0 0 20 21" fill="none" xmlns="http://www.w3.org/2000/svg">
<path d="M19.2422 20.3273H1.24219C0.832188 20.3273 0.492188 19.9873 0.492188 19.5773C0.492188 19.1673 0.832188 18.8273 1.24219 18.8273H19.2422C19.6522 18.8273 19.9922 19.1673 19.9922 19.5773C19.9922 19.9873 19.6522 20.3273 19.2422 20.3273Z" fill="#EE4E34"/>
<path fill-rule="evenodd" clip-rule="evenodd" d="M1.24219 20.3273H19.2422C19.6522 20.3273 19.9922 19.9873 19.9922 19.5773C19.9922 19.1673 19.6522 18.8273 19.2422 18.8273H1.24219C0.832188 18.8273 0.492188 19.1673 0.492188 19.5773C0.492188 19.9873 0.832188 20.3273 1.24219 20.3273Z" fill="#EE4E34"/>
<path d="M17.2628 1.80694C15.3228 -0.133061 13.4227 -0.183061 11.4327 1.80694L10.2227 3.01694C10.1227 3.11694 10.0828 3.27694 10.1228 3.41694C10.8828 6.06694 13.0027 8.18694 15.6528 8.94694C15.6927 8.95694 15.7328 8.96694 15.7728 8.96694C15.8828 8.96694 15.9827 8.92694 16.0627 8.84694L17.2628 7.63694C18.2528 6.65694 18.7327 5.70694 18.7327 4.74694C18.7428 3.75694 18.2628 2.79694 17.2628 1.80694Z" fill="#EE4E34"/>
<path fill-rule="evenodd" clip-rule="evenodd" d="M16.5556 2.51405C15.6863 1.6447 14.9633 1.33707 14.36 1.33317C13.7602 1.32929 13.0296 1.62433 12.1399 2.51405L11.1864 3.46747C11.8901 5.52769 13.5471 7.1834 15.6081 7.88527L16.5592 6.92622C17.4429 6.05147 17.7327 5.34187 17.7327 4.74694V4.73684C17.739 4.11434 17.4491 3.39859 16.5592 2.51759L16.5556 2.51405ZM15.6528 8.94694C13.0027 8.18694 10.8828 6.06694 10.1228 3.41694C10.0828 3.27694 10.1227 3.11694 10.2227 3.01694L11.4327 1.80694C13.4227 -0.183061 15.3228 -0.133061 17.2628 1.80694C18.2628 2.79694 18.7428 3.75694 18.7327 4.74694C18.7327 5.70694 18.2528 6.65694 17.2628 7.63694L16.0627 8.84694C15.9827 8.92694 15.8828 8.96694 15.7728 8.96694C15.7328 8.96694 15.6927 8.95694 15.6528 8.94694Z" fill="#EE4E34"/>
<path d="M13.8525 9.8574C13.5625 9.7174 13.2825 9.5774 13.0125 9.4174C12.7925 9.2874 12.5825 9.1474 12.3725 8.9974C12.2025 8.8874 12.0025 8.7274 11.8125 8.5674C11.7925 8.5574 11.7225 8.4974 11.6425 8.4174C11.3125 8.1374 10.9425 7.7774 10.6125 7.3774C10.5825 7.3574 10.5325 7.2874 10.4625 7.1974C10.3625 7.0774 10.1925 6.8774 10.0425 6.6474C9.92251 6.4974 9.78251 6.2774 9.65251 6.0574C9.49251 5.7874 9.35251 5.5174 9.21251 5.2374C9.19132 5.192 9.17082 5.14684 9.15094 5.10193C9.00337 4.76862 8.56873 4.67117 8.31098 4.92893L2.58251 10.6574C2.45251 10.7874 2.33251 11.0374 2.30251 11.2074L1.76251 15.0374C1.66251 15.7174 1.85251 16.3574 2.27251 16.7874C2.63251 17.1374 3.13251 17.3274 3.67251 17.3274C3.79251 17.3274 3.91251 17.3174 4.03251 17.2974L7.87251 16.7574C8.05251 16.7274 8.30251 16.6074 8.42251 16.4774L14.1438 10.7561C14.4034 10.4965 14.3055 10.0511 13.9678 9.90701C13.9298 9.89079 13.8914 9.87426 13.8525 9.8574Z" fill="#EE4E34"/>
<path fill-rule="evenodd" clip-rule="evenodd" d="M12.957 10.5287C12.8064 10.4505 12.6543 10.3675 12.503 10.2779C12.2589 10.1336 12.0301 9.98115 11.8087 9.82356C11.6035 9.68866 11.3881 9.51623 11.2073 9.36502C11.1914 9.3534 11.1805 9.34479 11.1757 9.34107C11.175 9.3405 11.1744 9.34005 11.174 9.33972C11.1438 9.31614 11.1154 9.29215 11.0915 9.27123C11.052 9.23663 11.0092 9.19697 10.9659 9.15469C10.6207 8.85918 10.2378 8.48671 9.88674 8.06858C9.87186 8.05369 9.86054 8.04157 9.85308 8.03353C9.81872 7.99648 9.78994 7.96122 9.77164 7.93834C9.75165 7.91335 9.71953 7.87158 9.69628 7.84134C9.69133 7.8349 9.68678 7.82899 9.68284 7.82387C9.67941 7.81977 9.67585 7.81551 9.67217 7.81111C9.5763 7.69648 9.39748 7.48266 9.23063 7.23266C9.07441 7.03073 8.91761 6.77939 8.7919 6.56666C8.70178 6.41457 8.61824 6.26394 8.53909 6.11503L3.31121 11.3429C3.31076 11.3437 3.31029 11.3445 3.3098 11.3453C3.30659 11.3508 3.30305 11.3574 3.29943 11.3646C3.29582 11.3718 3.29249 11.379 3.28959 11.3858C3.28822 11.389 3.28703 11.392 3.28601 11.3946L2.75188 15.1829C2.69188 15.5908 2.81088 15.9009 2.97903 16.0794C3.13369 16.2247 3.37131 16.3274 3.67251 16.3274C3.73667 16.3274 3.80168 16.3221 3.86811 16.311L3.88065 16.3089L7.69549 15.7725C7.70305 15.7696 7.71271 15.7655 7.72279 15.7605C7.72455 15.7596 7.72621 15.7587 7.72777 15.7579L12.957 10.5287ZM2.27251 16.7874C1.85251 16.3574 1.66251 15.7174 1.76251 15.0374L2.30251 11.2074C2.33251 11.0374 2.45251 10.7874 2.58251 10.6574L8.31098 4.92893C8.56873 4.67117 9.00337 4.76862 9.15094 5.10193C9.17082 5.14684 9.19132 5.192 9.21251 5.2374C9.35251 5.5174 9.49251 5.7874 9.65251 6.0574C9.78251 6.2774 9.92251 6.4974 10.0425 6.6474C10.1826 6.86218 10.3401 7.0508 10.4418 7.17255C10.449 7.18117 10.4559 7.18946 10.4625 7.1974C10.4767 7.21559 10.49 7.23297 10.5025 7.24928C10.5519 7.31366 10.5886 7.36144 10.6125 7.3774C10.9425 7.7774 11.3125 8.1374 11.6425 8.4174C11.7225 8.4974 11.7925 8.5574 11.8125 8.5674C12.0025 8.7274 12.2025 8.8874 12.3725 8.9974C12.5825 9.1474 12.7925 9.2874 13.0125 9.4174C13.2825 9.5774 13.5625 9.7174 13.8525 9.8574C13.8914 9.87426 13.9298 9.89079 13.9678 9.90701C14.3055 10.0511 14.4034 10.4965 14.1438 10.7561L8.42251 16.4774C8.30251 16.6074 8.05251 16.7274 7.87251 16.7574L4.03251 17.2974C3.91251 17.3174 3.79251 17.3274 3.67251 17.3274C3.13251 17.3274 2.63251 17.1374 2.27251 16.7874Z" fill="#EE4E34"/>
</svg>
