<svg width="20" height="23" viewBox="0 0 20 23" fill="none" xmlns="http://www.w3.org/2000/svg">
<path fill-rule="evenodd" clip-rule="evenodd" d="M13.7588 1.02088C14.9255 0.87168 16.1059 1.3488 17.3054 2.47735L17.3068 2.47865C18.5102 3.61674 19.058 4.77123 18.9759 5.94712C18.8964 7.08337 18.2377 8.04507 17.4866 8.83863M17.4866 8.83863L9.28068 17.5243C9.04934 17.7762 8.73785 17.9896 8.44255 18.1475C8.14346 18.3074 7.79749 18.4443 7.4727 18.502L7.46771 18.5029L4.24886 19.0527C3.46829 19.1872 2.71979 18.9922 2.18659 18.4865C1.65414 17.9816 1.41885 17.2452 1.50602 16.4607L1.50627 16.4585L1.87788 13.2044C1.92103 12.8807 2.04125 12.5305 2.18296 12.2266C2.32416 11.9238 2.51681 11.6028 2.74479 11.3601L2.74626 11.3585L10.9563 2.66851C11.7078 1.87463 12.6313 1.16505 13.7588 1.02088M12.0461 3.69918C12.046 3.69931 12.0462 3.69904 12.0461 3.69918L3.83806 12.3871C3.83789 12.3873 3.83824 12.3869 3.83806 12.3871C3.75609 12.4745 3.64349 12.6438 3.5424 12.8606C3.44314 13.0734 3.38352 13.2703 3.36565 13.3969L2.99684 16.6264C2.9968 16.6267 2.99677 16.6271 2.99673 16.6274C2.95422 17.0124 3.07385 17.2607 3.21877 17.3981C3.36306 17.535 3.61456 17.6399 3.994 17.5745L3.99515 17.5743L7.21226 17.0248C7.33753 17.0021 7.53055 16.9341 7.73531 16.8247C7.94289 16.7137 8.09905 16.594 8.17721 16.5083L8.18617 16.4984L16.3963 7.80851C17.0649 7.10217 17.4364 6.45851 17.4795 5.84252C17.5198 5.26606 17.2828 4.5208 16.2769 3.56926C15.2766 2.62827 14.5222 2.43547 13.9491 2.50876C13.3366 2.58707 12.7144 2.9933 12.0461 3.69918Z" fill="#EE4E34"/>
<path fill-rule="evenodd" clip-rule="evenodd" d="M10.0175 3.89296C10.4267 3.82919 10.8102 4.10929 10.874 4.51856C11.2511 6.93918 13.2156 8.79179 15.6581 9.03779C16.0702 9.0793 16.3707 9.44705 16.3291 9.85918C16.2876 10.2713 15.9199 10.5718 15.5078 10.5302C12.3902 10.2162 9.87473 7.84885 9.39186 4.74947C9.3281 4.3402 9.60819 3.95672 10.0175 3.89296Z" fill="#EE4E34"/>
<path fill-rule="evenodd" clip-rule="evenodd" d="M0.492188 21.5831C0.492188 21.1689 0.827974 20.8331 1.24219 20.8331H19.2422C19.6564 20.8331 19.9922 21.1689 19.9922 21.5831C19.9922 21.9973 19.6564 22.3331 19.2422 22.3331H1.24219C0.827974 22.3331 0.492188 21.9973 0.492188 21.5831Z" fill="#EE4E34"/>
</svg>
