<svg width="53" height="59" viewBox="0 0 53 59" fill="none" xmlns="http://www.w3.org/2000/svg">
<path d="M43.0941 58.4244H9.9031L6.59766 42.054H46.3996L43.0941 58.4244Z" stroke="#EE4E34" stroke-miterlimit="10"/>
<path d="M45.7492 42.0526H7.25127C3.79863 42.0526 1 39.254 1 35.8013C1 32.3487 3.79863 29.55 7.25127 29.55H45.7487C49.2014 29.55 52 32.3487 52 35.8013C52.0005 39.2534 49.2014 42.0526 45.7492 42.0526Z" stroke="#EE4E34" stroke-miterlimit="10"/>
<path d="M46.1761 29.5663V28.1667C46.1761 24.8825 43.5136 22.22 40.2294 22.22H39.1135H13.8829H12.7671C9.48288 22.22 6.82031 24.8825 6.82031 28.1667V29.5663" stroke="#EE4E34" stroke-miterlimit="10"/>
<path d="M13.8828 22.2206V20.4669C13.8828 17.3871 16.3795 14.8899 19.4598 14.8899H26.4976H33.5364C36.6163 14.8899 39.1135 17.3866 39.1135 20.4669V22.2206" stroke="#EE4E34" stroke-miterlimit="10"/>
<path d="M29.4564 13.6638C31.0897 12.0304 31.0897 9.3822 29.4564 7.74884C27.823 6.11548 25.1748 6.11548 23.5414 7.74884C21.9081 9.3822 21.9081 12.0304 23.5414 13.6638C25.1748 15.2971 27.823 15.2971 29.4564 13.6638Z" stroke="#EE4E34" stroke-miterlimit="10"/>
<path d="M26.5 6.52425C26.6325 5.8581 27.0938 3.99825 28.7711 2.47678C31.0148 0.441924 33.7325 0.555731 34.2581 0.588102" stroke="#EE4E34" stroke-miterlimit="10"/>
</svg>
