<?xml version="1.0" encoding="UTF-8"?>
<svg xmlns="http://www.w3.org/2000/svg" xmlns:xlink="http://www.w3.org/1999/xlink" width="23px" height="23px" viewBox="0 0 23 23" version="1.1">
<g id="surface1">
<path style=" stroke:none;fill-rule:nonzero;fill:rgb(93.333333%,30.588235%,20.392157%);fill-opacity:1;" d="M 18.171875 2.753906 L 14.59375 2.753906 C 14.414062 1.207031 13.097656 0 11.5 0 C 9.902344 0 8.585938 1.207031 8.410156 2.753906 L 4.828125 2.753906 C 3.378906 2.753906 2.199219 3.933594 2.199219 5.382812 L 2.199219 5.519531 C 2.199219 6.625 2.890625 7.574219 3.859375 7.960938 L 3.859375 20.371094 C 3.859375 21.820312 5.039062 23 6.488281 23 L 16.511719 23 C 17.960938 23 19.140625 21.820312 19.140625 20.371094 L 19.140625 7.960938 C 20.109375 7.574219 20.800781 6.625 20.800781 5.519531 L 20.800781 5.382812 C 20.800781 3.933594 19.621094 2.753906 18.171875 2.753906 Z M 11.5 1.246094 C 12.40625 1.246094 13.164062 1.898438 13.332031 2.753906 L 9.667969 2.753906 C 9.835938 1.898438 10.59375 1.246094 11.5 1.246094 Z M 17.894531 20.371094 C 17.894531 21.132812 17.273438 21.753906 16.511719 21.753906 L 6.488281 21.753906 C 5.726562 21.753906 5.105469 21.132812 5.105469 20.371094 L 5.105469 8.144531 L 17.894531 8.144531 Z M 19.554688 5.519531 C 19.554688 6.28125 18.933594 6.898438 18.171875 6.898438 L 4.828125 6.898438 C 4.066406 6.898438 3.445312 6.28125 3.445312 5.519531 L 3.445312 5.382812 C 3.445312 4.621094 4.066406 4 4.828125 4 L 18.171875 4 C 18.933594 4 19.554688 4.621094 19.554688 5.382812 Z M 19.554688 5.519531 "/>
<path style=" stroke:none;fill-rule:nonzero;fill:rgb(93.333333%,30.588235%,20.392157%);fill-opacity:1;" d="M 8.160156 20.160156 C 8.503906 20.160156 8.78125 19.882812 8.78125 19.539062 L 8.78125 12.523438 C 8.78125 12.175781 8.503906 11.898438 8.160156 11.898438 C 7.816406 11.898438 7.535156 12.175781 7.535156 12.523438 L 7.535156 19.539062 C 7.535156 19.882812 7.816406 20.160156 8.160156 20.160156 Z M 8.160156 20.160156 "/>
<path style=" stroke:none;fill-rule:nonzero;fill:rgb(93.333333%,30.588235%,20.392157%);fill-opacity:1;" d="M 11.5 20.160156 C 11.84375 20.160156 12.125 19.882812 12.125 19.539062 L 12.125 12.523438 C 12.125 12.175781 11.84375 11.898438 11.5 11.898438 C 11.15625 11.898438 10.875 12.175781 10.875 12.523438 L 10.875 19.539062 C 10.875 19.882812 11.15625 20.160156 11.5 20.160156 Z M 11.5 20.160156 "/>
<path style=" stroke:none;fill-rule:nonzero;fill:rgb(93.333333%,30.588235%,20.392157%);fill-opacity:1;" d="M 14.839844 20.160156 C 15.183594 20.160156 15.464844 19.882812 15.464844 19.539062 L 15.464844 12.523438 C 15.464844 12.175781 15.183594 11.898438 14.839844 11.898438 C 14.496094 11.898438 14.21875 12.175781 14.21875 12.523438 L 14.21875 19.539062 C 14.21875 19.882812 14.496094 20.160156 14.839844 20.160156 Z M 14.839844 20.160156 "/>
</g>
</svg>
