<svg width="53" height="59" viewBox="0 0 53 59" fill="none" xmlns="http://www.w3.org/2000/svg">
<path d="M43.0981 58.4246H9.90701L6.60156 42.0542H46.4035L43.0981 58.4246Z" fill="#EE4E34" stroke="#EE4E34" stroke-miterlimit="10"/>
<path d="M45.7492 42.0528H7.25127C3.79863 42.0528 1 39.2542 1 35.8016C1 32.3489 3.79863 29.5503 7.25127 29.5503H45.7487C49.2014 29.5503 52 32.3489 52 35.8016C52.0005 39.2537 49.2014 42.0528 45.7492 42.0528Z" fill="#FCEDDA" stroke="#EE4E34" stroke-miterlimit="10"/>
<path d="M46.1781 29.5666V28.167C46.1781 24.8828 43.5155 22.2202 40.2313 22.2202H39.1155H13.8848H12.769C9.48483 22.2202 6.82227 24.8828 6.82227 28.167V29.5666" fill="#EE4E34"/>
<path d="M46.1781 29.5666V28.167C46.1781 24.8828 43.5155 22.2202 40.2313 22.2202H39.1155H13.8848H12.769C9.48483 22.2202 6.82227 24.8828 6.82227 28.167V29.5666" stroke="#EE4E34" stroke-miterlimit="10"/>
<path d="M13.8828 22.2206V20.4669C13.8828 17.3871 16.3795 14.8899 19.4598 14.8899H26.4976H33.5364C36.6163 14.8899 39.1135 17.3866 39.1135 20.4669V22.2206" fill="#FCEDDA"/>
<path d="M13.8828 22.2206V20.4669C13.8828 17.3871 16.3795 14.8899 19.4598 14.8899H26.4976H33.5364C36.6163 14.8899 39.1135 17.3866 39.1135 20.4669V22.2206" stroke="#EE4E34" stroke-miterlimit="10"/>
<path d="M29.4583 13.6635C31.0917 12.0302 31.0917 9.38196 29.4583 7.7486C27.825 6.11524 25.1768 6.11524 23.5434 7.7486C21.91 9.38196 21.91 12.0302 23.5434 13.6635C25.1768 15.2969 27.825 15.2969 29.4583 13.6635Z" fill="#EE4E34" stroke="#EE4E34" stroke-miterlimit="10"/>
<path d="M26.5 6.52425C26.6325 5.8581 27.0938 3.99825 28.7711 2.47678C31.0148 0.441924 33.7325 0.555731 34.2581 0.588102" stroke="#EE4E34" stroke-miterlimit="10"/>
</svg>
