<svg width="31" height="31" viewBox="0 0 31 31" fill="none" xmlns="http://www.w3.org/2000/svg">
<path d="M20.5727 28.961C21.7884 28.961 22.7739 27.9755 22.7739 26.7598C22.7739 25.5441 21.7884 24.5586 20.5727 24.5586C19.3571 24.5586 18.3716 25.5441 18.3716 26.7598C18.3716 27.9755 19.3571 28.961 20.5727 28.961Z" fill="#FCEDDA"/>
<path d="M10.51 28.961C11.7257 28.961 12.7112 27.9755 12.7112 26.7598C12.7112 25.5441 11.7257 24.5586 10.51 24.5586C9.29431 24.5586 8.30881 25.5441 8.30881 26.7598C8.30881 27.9755 9.29431 28.961 10.51 28.961Z" fill="#FCEDDA"/>
<path d="M6.22088 5.61548L5.96931 8.69714C5.919 9.28832 6.38439 9.77887 6.97557 9.77887H26.2328C26.7611 9.77887 27.2014 9.37637 27.2391 8.84808C27.4026 6.62174 25.7045 4.81047 23.4782 4.81047H8.01956C7.89378 4.25703 7.64221 3.72874 7.25229 3.2885C6.62338 2.62186 5.7429 2.23193 4.83727 2.23193H2.64866C2.13295 2.23193 1.70529 2.65959 1.70529 3.1753C1.70529 3.69101 2.13295 4.11867 2.64866 4.11867H4.83727C5.2272 4.11867 5.59196 4.28218 5.85611 4.55891C6.12025 4.8482 6.24603 5.22555 6.22088 5.61548Z" fill="#FCEDDA"/>
<path d="M25.931 11.6655H6.636C6.10771 11.6655 5.68005 12.068 5.62974 12.5837L5.17692 18.0553C5.00083 20.2061 6.68631 22.0426 8.83718 22.0426H22.8242C24.7109 22.0426 26.3712 20.4954 26.5096 18.6087L26.9247 12.7347C26.975 12.1561 26.5222 11.6655 25.931 11.6655Z" fill="#FCEDDA"/>
</svg>
