<svg width="31" height="31" viewBox="0 0 31 31" fill="none" xmlns="http://www.w3.org/2000/svg">
<path d="M20.3838 12.0039C20.3838 14.4892 18.3691 16.5039 15.8838 16.5039C13.3985 16.5039 11.3838 14.4892 11.3838 12.0039C11.3838 9.51862 13.3985 7.50391 15.8838 7.50391C18.3691 7.50391 20.3838 9.51862 20.3838 12.0039Z" fill="#EE4E34"/>
<path fill-rule="evenodd" clip-rule="evenodd" d="M15.8838 9.00391C14.2269 9.00391 12.8838 10.3471 12.8838 12.0039C12.8838 13.6608 14.2269 15.0039 15.8838 15.0039C17.5406 15.0039 18.8838 13.6608 18.8838 12.0039C18.8838 10.3471 17.5406 9.00391 15.8838 9.00391ZM9.88379 12.0039C9.88379 8.6902 12.5701 6.00391 15.8838 6.00391C19.1975 6.00391 21.8838 8.6902 21.8838 12.0039C21.8838 15.3176 19.1975 18.0039 15.8838 18.0039C12.5701 18.0039 9.88379 15.3176 9.88379 12.0039Z" fill="#EE4E34"/>
<path fill-rule="evenodd" clip-rule="evenodd" d="M15.8838 3.00391C9.25637 3.00391 3.88379 8.37649 3.88379 15.0039C3.88379 21.6313 9.25637 27.0039 15.8838 27.0039C22.5112 27.0039 27.8838 21.6313 27.8838 15.0039C27.8838 8.37649 22.5112 3.00391 15.8838 3.00391ZM0.883789 15.0039C0.883789 6.71964 7.59952 0.00390625 15.8838 0.00390625C24.1681 0.00390625 30.8838 6.71964 30.8838 15.0039C30.8838 23.2882 24.1681 30.0039 15.8838 30.0039C7.59952 30.0039 0.883789 23.2882 0.883789 15.0039Z" fill="#EE4E34"/>
<path d="M-nan -nanL24.6916 25.2163C24.8071 25.1241 24.8537 24.9693 24.8017 24.8309C24.2378 23.3316 23.1039 22.0098 21.556 21.0538C19.9287 20.0487 17.9349 19.5039 15.8838 19.5039C13.8327 19.5039 11.839 20.0487 10.2117 21.0538C8.66378 22.0098 7.52982 23.3316 6.96599 24.8309C6.91396 24.9693 6.96055 25.1241 7.07603 25.2163L-nan -nanL7.07603 25.2163C12.2268 29.3319 19.5409 29.3319 24.6916 25.2163L-nan -nanZ" fill="#EE4E34"/>
<path fill-rule="evenodd" clip-rule="evenodd" d="M9.42371 19.7776C11.3051 18.6155 13.5755 18.0039 15.8841 18.0039C18.1926 18.0039 20.4631 18.6155 22.3444 19.7776C24.1357 20.8839 25.5101 22.4526 26.2059 24.3029C26.4984 25.0808 26.2245 25.9117 25.6282 26.3882C19.9299 30.9412 11.8382 30.9412 6.13994 26.3882C5.54363 25.9117 5.26971 25.0808 5.56223 24.3029C6.25807 22.4526 7.63244 20.8839 9.42371 19.7776ZM8.73905 24.5837C13.0373 27.5427 18.7308 27.5427 23.0291 24.5837C22.5352 23.7323 21.7737 22.9512 20.768 22.33C19.3948 21.4818 17.6777 21.0039 15.8841 21.0039C14.0904 21.0039 12.3733 21.4818 11.0002 22.3299C9.99444 22.9512 9.23298 23.7323 8.73905 24.5837Z" fill="#EE4E34"/>
<ellipse cx="16.132" cy="24.448" rx="7.63103" ry="3.74858" fill="#EE4E34"/>
</svg>
