<svg width="51" height="51" viewBox="0 0 51 51" fill="none" xmlns="http://www.w3.org/2000/svg">
<path fill-rule="evenodd" clip-rule="evenodd" d="M11.9766 12.9219C11.9766 12.4009 12.3989 11.9785 12.9199 11.9785H15.1085C16.6048 11.9785 17.8499 12.9849 18.2442 14.3306H33.9633C36.6085 14.3306 38.6293 16.4906 38.4387 19.1281L37.7595 28.5615L37.7591 28.5661C37.5833 30.8515 35.593 32.72 33.2841 32.72H19.8883C17.2762 32.72 15.216 30.4897 15.4389 27.8859C15.4389 27.8864 15.439 27.8855 15.4389 27.8859L16.4828 15.3592C16.5499 14.5622 15.9135 13.8652 15.1085 13.8652H12.9199C12.3989 13.8652 11.9766 13.4429 11.9766 12.9219ZM18.3046 16.2174L17.3191 28.0438L17.3188 28.0462C17.1903 29.5424 18.3751 30.8333 19.8883 30.8333H33.2841C34.5969 30.8333 35.7758 29.7345 35.8778 28.4235C35.8779 28.4228 35.8779 28.4221 35.878 28.4214L36.5568 18.9923C36.6681 17.4538 35.5192 16.2174 33.9633 16.2174H18.3046Z" fill="#EE4E34"/>
<path d="M15.4389 27.8859C15.216 30.4897 17.2762 32.72 19.8883 32.72H33.2841C35.593 32.72 37.5833 30.8515 37.7591 28.5661L37.7595 28.5615L38.4387 19.1281C38.6293 16.4906 36.6085 14.3306 33.9633 14.3306H18.2442C17.8499 12.9849 16.6048 11.9785 15.1085 11.9785H12.9199C12.3989 11.9785 11.9766 12.4009 11.9766 12.9219C11.9766 13.4429 12.3989 13.8652 12.9199 13.8652H15.1085C15.9135 13.8652 16.5499 14.5622 16.4828 15.3592L15.4389 27.8859ZM15.4389 27.8859C15.4389 27.8864 15.439 27.8855 15.4389 27.8859ZM17.3191 28.0438L18.3046 16.2174H33.9633C35.5192 16.2174 36.6681 17.4538 36.5568 18.9923L35.878 28.4214C35.8779 28.4221 35.8779 28.4228 35.8778 28.4235C35.7758 29.7345 34.5969 30.8333 33.2841 30.8333H19.8883C18.3751 30.8333 17.1903 29.5424 17.3188 28.0462L17.3191 28.0438Z" stroke="#EE4E34" stroke-miterlimit="10" stroke-linecap="round" stroke-linejoin="round"/>
<path fill-rule="evenodd" clip-rule="evenodd" d="M30.8438 35.8772C30.4964 35.8772 30.2149 36.1588 30.2149 36.5061C30.2149 36.8535 30.4964 37.135 30.8438 37.135C31.1911 37.135 31.4727 36.8535 31.4727 36.5061C31.4727 36.1588 31.1911 35.8772 30.8438 35.8772ZM28.3281 36.5061C28.3281 35.1168 29.4544 33.9905 30.8438 33.9905C32.2331 33.9905 33.3594 35.1168 33.3594 36.5061C33.3594 37.8955 32.2331 39.0218 30.8438 39.0218C29.4544 39.0218 28.3281 37.8955 28.3281 36.5061Z" fill="#EE4E34" stroke="#EE4E34" stroke-miterlimit="10" stroke-linecap="round" stroke-linejoin="round"/>
<path fill-rule="evenodd" clip-rule="evenodd" d="M20.7813 35.8772C20.4339 35.8772 20.1524 36.1588 20.1524 36.5061C20.1524 36.8535 20.4339 37.135 20.7813 37.135C21.1286 37.135 21.4102 36.8535 21.4102 36.5061C21.4102 36.1588 21.1286 35.8772 20.7813 35.8772ZM18.2656 36.5061C18.2656 35.1168 19.3919 33.9905 20.7813 33.9905C22.1706 33.9905 23.2969 35.1168 23.2969 36.5061C23.2969 37.8955 22.1706 39.0218 20.7813 39.0218C19.3919 39.0218 18.2656 37.8955 18.2656 36.5061Z" fill="#EE4E34" stroke="#EE4E34" stroke-miterlimit="10" stroke-linecap="round" stroke-linejoin="round"/>
<path fill-rule="evenodd" clip-rule="evenodd" d="M20.7812 20.4688C20.7812 19.9478 21.2036 19.5254 21.7246 19.5254H36.8185C37.3395 19.5254 37.7619 19.9478 37.7619 20.4688C37.7619 20.9898 37.3395 21.4121 36.8185 21.4121H21.7246C21.2036 21.4121 20.7812 20.9898 20.7812 20.4688Z" fill="#EE4E34" stroke="#EE4E34" stroke-miterlimit="10" stroke-linecap="round" stroke-linejoin="round"/>
</svg>
