<svg width="31" height="31" viewBox="0 0 31 31" fill="none" xmlns="http://www.w3.org/2000/svg">
<path fill-rule="evenodd" clip-rule="evenodd" d="M1.97815 2.99415C1.97815 2.47314 2.40051 2.05078 2.92152 2.05078H5.11013C6.60641 2.05078 7.85148 3.05717 8.24579 4.4029H23.9649C26.6101 4.4029 28.6309 6.56288 28.4403 9.20035L27.7611 18.6337L27.7607 18.6384C27.5849 20.9238 25.5946 22.7923 23.2857 22.7923H9.88985C7.2778 22.7923 5.21759 20.562 5.44052 17.9582C5.44048 17.9586 5.44055 17.9578 5.44052 17.9582L6.48442 5.43145C6.55145 4.6345 5.91504 3.93752 5.11013 3.93752H2.92152C2.40051 3.93752 1.97815 3.51516 1.97815 2.99415ZM8.30617 6.28964L7.32064 18.116L7.32044 18.1184C7.19193 19.6146 8.37665 20.9055 9.88985 20.9055H23.2857C24.5985 20.9055 25.7774 19.8068 25.8794 18.4958C25.8794 18.4951 25.8795 18.4943 25.8796 18.4936L26.5584 9.06458C26.6696 7.52608 25.5208 6.28964 23.9649 6.28964H8.30617Z" fill="#FCEDDA"/>
<path d="M5.44052 17.9582C5.21759 20.562 7.2778 22.7923 9.88985 22.7923H23.2857C25.5946 22.7923 27.5849 20.9238 27.7607 18.6384L27.7611 18.6337L28.4403 9.20035C28.6309 6.56288 26.6101 4.4029 23.9649 4.4029H8.24579C7.85148 3.05717 6.60641 2.05078 5.11013 2.05078H2.92152C2.40051 2.05078 1.97815 2.47314 1.97815 2.99415C1.97815 3.51516 2.40051 3.93752 2.92152 3.93752H5.11013C5.91504 3.93752 6.55145 4.6345 6.48442 5.43145L5.44052 17.9582ZM5.44052 17.9582C5.44048 17.9586 5.44055 17.9578 5.44052 17.9582ZM7.32064 18.116L8.30617 6.28964H23.9649C25.5208 6.28964 26.6696 7.52608 26.5584 9.06458L25.8796 18.4936C25.8795 18.4943 25.8794 18.4951 25.8794 18.4958C25.7774 19.8068 24.5985 20.9055 23.2857 20.9055H9.88985C8.37665 20.9055 7.19193 19.6146 7.32043 18.1184L7.32064 18.116Z" stroke="#FCEDDA" stroke-miterlimit="10" stroke-linecap="round" stroke-linejoin="round"/>
<path fill-rule="evenodd" clip-rule="evenodd" d="M20.8456 25.9497C20.4983 25.9497 20.2167 26.2313 20.2167 26.5786C20.2167 26.926 20.4983 27.2075 20.8456 27.2075C21.1929 27.2075 21.4745 26.926 21.4745 26.5786C21.4745 26.2313 21.1929 25.9497 20.8456 25.9497ZM18.33 26.5786C18.33 25.1893 19.4562 24.063 20.8456 24.063C22.235 24.063 23.3612 25.1893 23.3612 26.5786C23.3612 27.968 22.235 29.0943 20.8456 29.0943C19.4562 29.0943 18.33 27.968 18.33 26.5786Z" fill="#FCEDDA" stroke="#FCEDDA" stroke-miterlimit="10" stroke-linecap="round" stroke-linejoin="round"/>
<path fill-rule="evenodd" clip-rule="evenodd" d="M10.7829 25.9497C10.4355 25.9497 10.1539 26.2313 10.1539 26.5786C10.1539 26.926 10.4355 27.2075 10.7829 27.2075C11.1302 27.2075 11.4118 26.926 11.4118 26.5786C11.4118 26.2313 11.1302 25.9497 10.7829 25.9497ZM8.26721 26.5786C8.26721 25.1893 9.3935 24.063 10.7829 24.063C12.1722 24.063 13.2985 25.1893 13.2985 26.5786C13.2985 27.968 12.1722 29.0943 10.7829 29.0943C9.3935 29.0943 8.26721 27.968 8.26721 26.5786Z" fill="#FCEDDA" stroke="#FCEDDA" stroke-miterlimit="10" stroke-linecap="round" stroke-linejoin="round"/>
<path fill-rule="evenodd" clip-rule="evenodd" d="M10.7828 10.541C10.7828 10.02 11.2052 9.59766 11.7262 9.59766H26.8201C27.3411 9.59766 27.7634 10.02 27.7634 10.541C27.7634 11.062 27.3411 11.4844 26.8201 11.4844H11.7262C11.2052 11.4844 10.7828 11.062 10.7828 10.541Z" fill="#FCEDDA" stroke="#FCEDDA" stroke-miterlimit="10" stroke-linecap="round" stroke-linejoin="round"/>
</svg>
