<svg width="31" height="31" viewBox="0 0 31 31" fill="none" xmlns="http://www.w3.org/2000/svg">
<path d="M20.9839 28.305C22.1996 28.305 23.1851 27.3195 23.1851 26.1038C23.1851 24.8881 22.1996 23.9026 20.9839 23.9026C19.7682 23.9026 18.7827 24.8881 18.7827 26.1038C18.7827 27.3195 19.7682 28.305 20.9839 28.305Z" fill="#EE4E34"/>
<path d="M10.9209 28.305C12.1366 28.305 13.1221 27.3195 13.1221 26.1038C13.1221 24.8881 12.1366 23.9026 10.9209 23.9026C9.70523 23.9026 8.71973 24.8881 8.71973 26.1038C8.71973 27.3195 9.70523 28.305 10.9209 28.305Z" fill="#EE4E34"/>
<path d="M6.63179 4.95971L6.38023 8.04138C6.32992 8.63256 6.79531 9.12311 7.38649 9.12311H26.6438C27.172 9.12311 27.6123 8.7206 27.65 8.19232C27.8135 5.96597 26.1155 4.15471 23.8891 4.15471H8.43048C8.3047 3.60127 8.05313 3.07298 7.66321 2.63274C7.0343 1.9661 6.15382 1.57617 5.24819 1.57617H3.05958C2.54387 1.57617 2.11621 2.00383 2.11621 2.51954C2.11621 3.03525 2.54387 3.46291 3.05958 3.46291H5.24819C5.63811 3.46291 6.00288 3.62642 6.26703 3.90314C6.53117 4.19244 6.65695 4.56979 6.63179 4.95971Z" fill="#EE4E34"/>
<path d="M26.3419 11.0098H7.04691C6.51863 11.0098 6.09097 11.4123 6.04066 11.928L5.58784 17.3995C5.41175 19.5504 7.09723 21.3868 9.2481 21.3868H23.2351C25.1218 21.3868 26.7822 19.8397 26.9205 17.9529L27.3356 12.0789C27.3859 11.5003 26.9331 11.0098 26.3419 11.0098Z" fill="#EE4E34"/>
</svg>
