<svg width="51" height="52" viewBox="0 0 51 52" fill="none" xmlns="http://www.w3.org/2000/svg">
<g opacity="1">
<path fill-rule="evenodd" clip-rule="evenodd" d="M24.6428 18C20.698 18 17.5 21.198 17.5 25.1429C17.5 29.0878 20.698 32.2858 24.6428 32.2858C28.5877 32.2858 31.7857 29.0878 31.7857 25.1429C31.7857 21.198 28.5877 18 24.6428 18ZM13.5 25.1429C13.5 18.9889 18.4888 14 24.6428 14C30.7969 14 35.7857 18.9889 35.7857 25.1429C35.7857 31.2969 30.7969 36.2858 24.6428 36.2858C18.4888 36.2858 13.5 31.2969 13.5 25.1429Z" fill="#EE4E34"/>
<path fill-rule="evenodd" clip-rule="evenodd" d="M31.2283 31.7287C32.0094 30.9477 33.2757 30.9477 34.0567 31.7287L36.9139 34.5859C37.6949 35.3669 37.6949 36.6333 36.9139 37.4143C36.1328 38.1953 34.8665 38.1953 34.0855 37.4143L31.2283 34.5572C30.4473 33.7761 30.4473 32.5098 31.2283 31.7287Z" fill="#EE4E34"/>
</g>
</svg>
