<svg width="31" height="31" viewBox="0 0 31 31" fill="none" xmlns="http://www.w3.org/2000/svg">
<path fill-rule="evenodd" clip-rule="evenodd" d="M15.8838 9.00391C14.2269 9.00391 12.8838 10.3471 12.8838 12.0039C12.8838 13.6608 14.2269 15.0039 15.8838 15.0039C17.5406 15.0039 18.8838 13.6608 18.8838 12.0039C18.8838 10.3471 17.5406 9.00391 15.8838 9.00391ZM9.88379 12.0039C9.88379 8.6902 12.5701 6.00391 15.8838 6.00391C19.1975 6.00391 21.8838 8.6902 21.8838 12.0039C21.8838 15.3176 19.1975 18.0039 15.8838 18.0039C12.5701 18.0039 9.88379 15.3176 9.88379 12.0039Z" fill="#EE4E34"/>
<path fill-rule="evenodd" clip-rule="evenodd" d="M15.8838 3.00391C9.25637 3.00391 3.88379 8.37649 3.88379 15.0039C3.88379 21.6313 9.25637 27.0039 15.8838 27.0039C22.5112 27.0039 27.8838 21.6313 27.8838 15.0039C27.8838 8.37649 22.5112 3.00391 15.8838 3.00391ZM0.883789 15.0039C0.883789 6.71964 7.59952 0.00390625 15.8838 0.00390625C24.1681 0.00390625 30.8838 6.71964 30.8838 15.0039C30.8838 23.2882 24.1681 30.0039 15.8838 30.0039C7.59952 30.0039 0.883789 23.2882 0.883789 15.0039Z" fill="#EE4E34"/>
<path fill-rule="evenodd" clip-rule="evenodd" d="M9.42334 19.7776C11.3047 18.6155 13.5752 18.0039 15.8837 18.0039C18.1923 18.0039 20.4627 18.6155 22.3441 19.7776C24.2268 20.9404 25.6498 22.6149 26.3069 24.589C26.5686 25.375 26.1435 26.2243 25.3575 26.486C24.5714 26.7476 23.7221 26.3225 23.4605 25.5365C23.0559 24.3211 22.1394 23.1772 20.7676 22.33C19.3945 21.4818 17.6774 21.0039 15.8837 21.0039C14.0901 21.0039 12.3729 21.4818 10.9998 22.3299C9.62802 23.1772 8.71151 24.3211 8.30693 25.5365C8.04527 26.3225 7.19596 26.7476 6.40994 26.486C5.62392 26.2243 5.19884 25.375 5.46049 24.589C6.11763 22.6149 7.54066 20.9404 9.42334 19.7776Z" fill="#EE4E34"/>
</svg>