<svg width="122" height="122" viewBox="0 0 122 122" fill="none" xmlns="http://www.w3.org/2000/svg">
<path d="M77.0981 89.4246H43.907L40.6016 73.0542H80.4035L77.0981 89.4246Z" fill="#EE4E34" stroke="#EE4E34" stroke-miterlimit="10"/>
<path d="M79.7492 73.0526H41.2513C37.7986 73.0526 35 70.254 35 66.8013C35 63.3487 37.7986 60.55 41.2513 60.55H79.7487C83.2014 60.55 86 63.3487 86 66.8013C86.0005 70.2534 83.2014 73.0526 79.7492 73.0526Z" fill="#FCEDDA" stroke="#EE4E34" stroke-miterlimit="10"/>
<path d="M80.1781 60.5663V59.1667C80.1781 55.8825 77.5155 53.22 74.2313 53.22H73.1155H47.8848H46.769C43.4848 53.22 40.8223 55.8825 40.8223 59.1667V60.5663" fill="#EE4E34"/>
<path d="M80.1781 60.5663V59.1667C80.1781 55.8825 77.5155 53.22 74.2313 53.22H73.1155H47.8848H46.769C43.4848 53.22 40.8223 55.8825 40.8223 59.1667V60.5663" stroke="#EE4E34" stroke-miterlimit="10"/>
<path d="M47.8828 53.2203V51.4667C47.8828 48.3868 50.3795 45.8896 53.4598 45.8896H60.4976H67.5364C70.6163 45.8896 73.1135 48.3863 73.1135 51.4667V53.2203" fill="#FCEDDA"/>
<path d="M47.8828 53.2203V51.4667C47.8828 48.3868 50.3795 45.8896 53.4598 45.8896H60.4976H67.5364C70.6163 45.8896 73.1135 48.3863 73.1135 51.4667V53.2203" stroke="#EE4E34" stroke-miterlimit="10"/>
<path d="M63.4583 44.6633C65.0917 43.0299 65.0917 40.3817 63.4583 38.7484C61.825 37.115 59.1768 37.115 57.5434 38.7484C55.91 40.3817 55.91 43.0299 57.5434 44.6633C59.1768 46.2966 61.825 46.2966 63.4583 44.6633Z" fill="#EE4E34" stroke="#EE4E34" stroke-miterlimit="10"/>
<path d="M60.5 37.524C60.6325 36.8579 61.0938 34.998 62.7711 33.4765C65.0148 31.4417 67.7325 31.5555 68.2581 31.5879" stroke="#EE4E34" stroke-miterlimit="10"/>
</svg>
