<svg width="51" height="51" viewBox="0 0 51 51" fill="none" xmlns="http://www.w3.org/2000/svg">
<path fill-rule="evenodd" clip-rule="evenodd" d="M25.5 19.5C23.8431 19.5 22.5 20.8431 22.5 22.5C22.5 24.1569 23.8431 25.5 25.5 25.5C27.1569 25.5 28.5 24.1569 28.5 22.5C28.5 20.8431 27.1569 19.5 25.5 19.5ZM19.5 22.5C19.5 19.1863 22.1863 16.5 25.5 16.5C28.8137 16.5 31.5 19.1863 31.5 22.5C31.5 25.8137 28.8137 28.5 25.5 28.5C22.1863 28.5 19.5 25.8137 19.5 22.5Z" fill="#EE4E34"/>
<path fill-rule="evenodd" clip-rule="evenodd" d="M25.5 13.5C18.8726 13.5 13.5 18.8726 13.5 25.5C13.5 32.1274 18.8726 37.5 25.5 37.5C32.1274 37.5 37.5 32.1274 37.5 25.5C37.5 18.8726 32.1274 13.5 25.5 13.5ZM10.5 25.5C10.5 17.2157 17.2157 10.5 25.5 10.5C33.7843 10.5 40.5 17.2157 40.5 25.5C40.5 33.7843 33.7843 40.5 25.5 40.5C17.2157 40.5 10.5 33.7843 10.5 25.5Z" fill="#EE4E34"/>
<path fill-rule="evenodd" clip-rule="evenodd" d="M19.04 30.2737C20.9214 29.1116 23.1919 28.5 25.5004 28.5C27.809 28.5 30.0794 29.1116 31.9608 30.2737C33.8435 31.4365 35.2665 33.111 35.9236 35.0851C36.1853 35.8711 35.7602 36.7204 34.9742 36.9821C34.1881 37.2437 33.3388 36.8186 33.0772 36.0326C32.6726 34.8172 31.7561 33.6733 30.3843 32.826C29.0112 31.9779 27.2941 31.5 25.5004 31.5C23.7068 31.5 21.9896 31.9779 20.6165 32.826C19.2447 33.6733 18.3282 34.8172 17.9236 36.0326C17.662 36.8186 16.8127 37.2437 16.0266 36.9821C15.2406 36.7204 14.8155 35.8711 15.0772 35.0851C15.7343 33.111 17.1574 31.4365 19.04 30.2737Z" fill="#EE4E34"/>
</svg>