<svg width="31" height="31" viewBox="0 0 31 31" fill="none" xmlns="http://www.w3.org/2000/svg">
<path fill-rule="evenodd" clip-rule="evenodd" d="M1.92871 2.51954C1.92871 1.99853 2.35107 1.57617 2.87208 1.57617H5.0607C6.55697 1.57617 7.80204 2.58256 8.19635 3.92829H23.9154C26.5607 3.92829 28.5815 6.08827 28.3908 8.72574L27.7116 18.1591L27.7113 18.1637C27.5355 20.4492 25.5452 22.3177 23.2362 22.3177H9.84041C7.22836 22.3177 5.16816 20.0874 5.39108 17.4836C5.39104 17.484 5.39111 17.4832 5.39108 17.4836L6.43498 4.95684C6.50201 4.15989 5.8656 3.46291 5.0607 3.46291H2.87208C2.35107 3.46291 1.92871 3.04055 1.92871 2.51954ZM8.25674 5.81503L7.2712 17.6414L7.271 17.6438C7.14249 19.14 8.32721 20.4309 9.84041 20.4309H23.2362C24.5491 20.4309 25.7279 19.3322 25.83 18.0211C25.83 18.0204 25.8301 18.0197 25.8301 18.019L26.509 8.58997C26.6202 7.05147 25.4713 5.81503 23.9154 5.81503H8.25674Z" fill="#EE4E34"/>
<path d="M5.39108 17.4836C5.16816 20.0874 7.22836 22.3177 9.84041 22.3177H23.2362C25.5452 22.3177 27.5355 20.4492 27.7113 18.1637L27.7116 18.1591L28.3908 8.72574C28.5815 6.08827 26.5607 3.92829 23.9154 3.92829H8.19635C7.80204 2.58256 6.55697 1.57617 5.0607 1.57617H2.87208C2.35107 1.57617 1.92871 1.99853 1.92871 2.51954C1.92871 3.04055 2.35107 3.46291 2.87208 3.46291H5.0607C5.8656 3.46291 6.50201 4.15989 6.43498 4.95684L5.39108 17.4836ZM5.39108 17.4836C5.39104 17.484 5.39111 17.4832 5.39108 17.4836ZM7.2712 17.6414L8.25674 5.81503H23.9154C25.4713 5.81503 26.6202 7.05147 26.509 8.58997L25.8301 18.019C25.8301 18.0197 25.83 18.0204 25.83 18.0211C25.7279 19.3322 24.5491 20.4309 23.2362 20.4309H9.84041C8.32721 20.4309 7.14249 19.14 7.271 17.6438L7.2712 17.6414Z" stroke="#EE4E34" stroke-miterlimit="10" stroke-linecap="round" stroke-linejoin="round"/>
<path fill-rule="evenodd" clip-rule="evenodd" d="M20.7959 25.4749C20.4486 25.4749 20.167 25.7564 20.167 26.1038C20.167 26.4511 20.4486 26.7327 20.7959 26.7327C21.1433 26.7327 21.4248 26.4511 21.4248 26.1038C21.4248 25.7564 21.1433 25.4749 20.7959 25.4749ZM18.2803 26.1038C18.2803 24.7144 19.4066 23.5881 20.7959 23.5881C22.1853 23.5881 23.3116 24.7144 23.3116 26.1038C23.3116 27.4931 22.1853 28.6194 20.7959 28.6194C19.4066 28.6194 18.2803 27.4931 18.2803 26.1038Z" fill="#EE4E34" stroke="#EE4E34" stroke-miterlimit="10" stroke-linecap="round" stroke-linejoin="round"/>
<path fill-rule="evenodd" clip-rule="evenodd" d="M10.7334 25.4749C10.3861 25.4749 10.1045 25.7564 10.1045 26.1038C10.1045 26.4511 10.3861 26.7327 10.7334 26.7327C11.0808 26.7327 11.3623 26.4511 11.3623 26.1038C11.3623 25.7564 11.0808 25.4749 10.7334 25.4749ZM8.21777 26.1038C8.21777 24.7144 9.34407 23.5881 10.7334 23.5881C12.1228 23.5881 13.2491 24.7144 13.2491 26.1038C13.2491 27.4931 12.1228 28.6194 10.7334 28.6194C9.34407 28.6194 8.21777 27.4931 8.21777 26.1038Z" fill="#EE4E34" stroke="#EE4E34" stroke-miterlimit="10" stroke-linecap="round" stroke-linejoin="round"/>
<path fill-rule="evenodd" clip-rule="evenodd" d="M10.7334 10.0664C10.7334 9.54541 11.1558 9.12305 11.6768 9.12305H26.7706C27.2916 9.12305 27.714 9.54541 27.714 10.0664C27.714 10.5874 27.2916 11.0098 26.7706 11.0098H11.6768C11.1558 11.0098 10.7334 10.5874 10.7334 10.0664Z" fill="#EE4E34" stroke="#EE4E34" stroke-miterlimit="10" stroke-linecap="round" stroke-linejoin="round"/>
</svg>
