<svg width="32" height="33" viewBox="0 0 32 33" fill="none" xmlns="http://www.w3.org/2000/svg">
<path d="M30.9258 18.9972L30.9239 19.0174C30.7095 21.5426 29.8741 23.2944 28.54 24.4303C27.1932 25.577 25.1912 26.2216 22.3963 26.2216H21.6046C20.8117 26.2216 20.0061 26.5757 19.515 27.276L17.1261 30.4782C17.1258 30.4786 17.1255 30.479 17.1253 30.4793C16.7455 30.9851 16.3287 31.1502 15.9992 31.1502C15.6696 31.1502 15.2526 30.985 14.8728 30.4789C14.8726 30.4787 14.8725 30.4785 14.8723 30.4782L12.4733 27.2626L12.4644 27.2509C12.2186 26.9313 11.8723 26.6868 11.552 26.5245C11.2326 26.3626 10.8192 26.2216 10.3937 26.2216H9.60209C6.41295 26.2216 4.35472 25.81 3.05649 24.6751C1.79169 23.5693 1.00147 21.5454 1.00147 17.6209V9.60216C1.00147 6.8072 1.64606 4.80526 2.79274 3.45846C3.92855 2.12443 5.68031 1.28905 8.2056 1.07464L8.22572 1.07272C8.67368 1.02557 9.14933 1.00162 9.62758 1.00162L22.4729 1.00163L22.4769 1.00161C25.4706 0.989489 27.5518 1.74644 28.8915 3.09143C30.2326 4.43788 30.9969 6.54056 30.9969 9.57668V17.5954C30.9969 18.0736 30.973 18.5493 30.9258 18.9972Z" stroke="#EE4E34" stroke-width="2" stroke-miterlimit="10" stroke-linecap="round" stroke-linejoin="round"/>
</svg>
