<svg width="18" height="21" viewBox="0 0 18 21" fill="none" xmlns="http://www.w3.org/2000/svg">
<path d="M7.01542 8.01165V7.2167C6.73965 7.17281 6.46105 7.149 6.18182 7.14546C4.86733 7.14233 3.58623 7.55929 2.52539 8.3355C1.46456 9.11172 0.679486 10.2066 0.284704 11.4604C-0.110078 12.7142 -0.0939166 14.0614 0.33083 15.3053C0.755577 16.5493 1.56669 17.625 2.64584 18.3756C1.83439 17.5064 1.29181 16.4209 1.08358 15.2501C0.875346 14.0794 1.01036 12.8734 1.47233 11.7777C1.9343 10.682 2.70348 9.74338 3.68706 9.07512C4.67064 8.40686 5.82659 8.03752 7.01542 8.01165Z" fill="#65D2E9"/>
<path d="M7.16547 16.9926C7.8915 16.9917 8.58922 16.7108 9.11335 16.2084C9.63749 15.706 9.94765 15.0208 9.97926 14.2955V0.851031H12.4361C12.386 0.570172 12.3619 0.285287 12.3641 0H9.0047V13.4308C8.97766 14.1596 8.66943 14.8495 8.14467 15.3559C7.61991 15.8623 6.91941 16.1458 6.19016 16.1468C5.73741 16.1429 5.29203 16.0317 4.8905 15.8225C5.1507 16.183 5.4924 16.4769 5.88775 16.6802C6.2831 16.8835 6.7209 16.9906 7.16547 16.9926Z" fill="#65D2E9"/>
<path d="M17.0239 5.41231V4.66511C16.1199 4.66509 15.236 4.39831 14.4829 3.89819C15.1428 4.66593 16.0348 5.19796 17.0239 5.41383V5.41231Z" fill="#65D2E9"/>
<path d="M14.4829 3.89821C13.7413 3.0534 13.3324 1.9676 13.3325 0.843445H12.436C12.5519 1.46484 12.7931 2.05613 13.1448 2.58131C13.4966 3.10649 13.9516 3.55456 14.4821 3.89821H14.4829Z" fill="#E6436D"/>
<path d="M6.18413 10.5071C5.55517 10.5106 4.94542 10.7241 4.45174 11.1139C3.95806 11.5036 3.60876 12.0471 3.45932 12.6581C3.30989 13.269 3.3689 13.9124 3.62697 14.486C3.88504 15.0596 4.32738 15.5305 4.88372 15.8239C4.57946 15.4037 4.39728 14.9075 4.35732 14.3902C4.31735 13.8729 4.42115 13.3546 4.65725 12.8926C4.89335 12.4306 5.25256 12.0429 5.69519 11.7722C6.13783 11.5015 6.64667 11.3585 7.16551 11.3588C7.44815 11.3618 7.7289 11.4055 7.99911 11.4884V8.06991C7.72313 8.02865 7.44455 8.00713 7.16551 8.00549H7.01394V10.6048C6.74351 10.5324 6.46401 10.4994 6.18413 10.5071Z" fill="#E6436D"/>
<path d="M17.0239 5.41229V8.01161C15.35 8.00797 13.7198 7.47771 12.3641 6.49597V13.3262C12.3607 14.963 11.708 16.5316 10.5494 17.6878C9.39082 18.844 7.82086 19.4933 6.18405 19.4933C4.91809 19.4958 3.68259 19.1052 2.64807 18.3755C3.49163 19.2829 4.58891 19.9153 5.79696 20.1901C7.00502 20.465 8.26786 20.3697 9.42098 19.9166C10.5741 19.4636 11.5641 18.6737 12.2619 17.65C12.9597 16.6263 13.3331 15.4162 13.3333 14.1772V7.36822C14.6937 8.34349 16.3261 8.86653 18 8.8634V5.51611C17.6719 5.51539 17.3448 5.4806 17.0239 5.41229Z" fill="#E6436D"/>
<path d="M12.3641 13.3278V6.49753C13.7252 7.47351 15.359 7.99635 17.0338 7.99195V5.39263C16.045 5.18395 15.1508 4.65945 14.486 3.89821C13.9555 3.55456 13.5005 3.10649 13.1487 2.58131C12.797 2.05613 12.5558 1.46484 12.4399 0.843445H9.97928V14.2962C9.95534 14.8818 9.74961 15.4453 9.39069 15.9086C9.03176 16.3718 8.53746 16.7118 7.97646 16.8812C7.41546 17.0506 6.81562 17.0411 6.26028 16.8539C5.70494 16.6668 5.22168 16.3113 4.87765 15.8369C4.32114 15.5437 3.87859 15.073 3.62033 14.4994C3.36207 13.9259 3.30293 13.2825 3.45231 12.6715C3.60168 12.0605 3.951 11.517 4.44475 11.1273C4.93849 10.7376 5.54832 10.5241 6.17731 10.5208C6.46001 10.5231 6.74085 10.5668 7.01091 10.6504V8.0503C5.81556 8.07063 4.65194 8.43829 3.66192 9.10847C2.6719 9.77866 1.89825 10.7224 1.43529 11.8246C0.972334 12.9269 0.840067 14.14 1.05462 15.3161C1.26917 16.4923 1.82126 17.5805 2.6436 18.4483C3.688 19.153 4.92449 19.5179 6.18413 19.4934C7.82068 19.4934 9.39041 18.8442 10.549 17.6884C11.7075 16.5325 12.3603 14.9643 12.3641 13.3278Z" fill="white"/>
</svg>
